<mxfile host="app.diagrams.net" modified="2022-07-16T06:43:30.075Z" agent="5.0 (Windows NT 10.0; Win64; x64) AppleWebKit/537.36 (KHTML, like Gecko) Chrome/103.0.5060.114 Safari/537.36" etag="EaxC_GGJ1RKU-ClIzth6" version="20.1.1" type="github">
  <diagram id="8nDIW0P9X7hkD45vAhsB" name="Page-1">
    <mxGraphModel dx="666" dy="452" grid="1" gridSize="10" guides="1" tooltips="1" connect="1" arrows="1" fold="1" page="1" pageScale="1" pageWidth="1200" pageHeight="1920" math="0" shadow="0">
      <root>
        <mxCell id="0" />
        <mxCell id="1" parent="0" />
        <mxCell id="iaKd4ftbLu3o60mAxdSO-6" style="edgeStyle=orthogonalEdgeStyle;rounded=0;orthogonalLoop=1;jettySize=auto;html=1;fontColor=#ffffff;" edge="1" parent="1" source="iaKd4ftbLu3o60mAxdSO-1" target="iaKd4ftbLu3o60mAxdSO-2">
          <mxGeometry relative="1" as="geometry" />
        </mxCell>
        <mxCell id="iaKd4ftbLu3o60mAxdSO-7" style="edgeStyle=orthogonalEdgeStyle;rounded=0;orthogonalLoop=1;jettySize=auto;html=1;entryX=0.5;entryY=0;entryDx=0;entryDy=0;fontColor=#ffffff;" edge="1" parent="1" source="iaKd4ftbLu3o60mAxdSO-1" target="iaKd4ftbLu3o60mAxdSO-3">
          <mxGeometry relative="1" as="geometry" />
        </mxCell>
        <mxCell id="iaKd4ftbLu3o60mAxdSO-8" style="edgeStyle=orthogonalEdgeStyle;rounded=0;orthogonalLoop=1;jettySize=auto;html=1;entryX=0.619;entryY=0.037;entryDx=0;entryDy=0;entryPerimeter=0;fontColor=#ffffff;" edge="1" parent="1" source="iaKd4ftbLu3o60mAxdSO-1" target="iaKd4ftbLu3o60mAxdSO-4">
          <mxGeometry relative="1" as="geometry" />
        </mxCell>
        <mxCell id="iaKd4ftbLu3o60mAxdSO-9" style="edgeStyle=orthogonalEdgeStyle;rounded=0;orthogonalLoop=1;jettySize=auto;html=1;entryX=0.5;entryY=0;entryDx=0;entryDy=0;fontColor=#ffffff;" edge="1" parent="1" source="iaKd4ftbLu3o60mAxdSO-1" target="iaKd4ftbLu3o60mAxdSO-5">
          <mxGeometry relative="1" as="geometry" />
        </mxCell>
        <mxCell id="iaKd4ftbLu3o60mAxdSO-1" value="&lt;span style=&quot;background-color: rgb(0, 0, 0);&quot;&gt;&lt;font color=&quot;#ffffff&quot;&gt;GitHub&lt;/font&gt;&lt;/span&gt;" style="rounded=0;whiteSpace=wrap;html=1;" vertex="1" parent="1">
          <mxGeometry x="280" y="80" width="120" height="40" as="geometry" />
        </mxCell>
        <mxCell id="iaKd4ftbLu3o60mAxdSO-11" style="edgeStyle=orthogonalEdgeStyle;rounded=0;orthogonalLoop=1;jettySize=auto;html=1;fontColor=#ffffff;" edge="1" parent="1" source="iaKd4ftbLu3o60mAxdSO-2" target="iaKd4ftbLu3o60mAxdSO-10">
          <mxGeometry relative="1" as="geometry" />
        </mxCell>
        <mxCell id="iaKd4ftbLu3o60mAxdSO-2" value="Commit Velocity" style="ellipse;whiteSpace=wrap;html=1;labelBackgroundColor=#000000;fontColor=#ffffff;" vertex="1" parent="1">
          <mxGeometry x="10" y="200" width="120" height="80" as="geometry" />
        </mxCell>
        <mxCell id="iaKd4ftbLu3o60mAxdSO-13" style="edgeStyle=orthogonalEdgeStyle;rounded=0;orthogonalLoop=1;jettySize=auto;html=1;entryX=0.5;entryY=0;entryDx=0;entryDy=0;fontColor=#ffffff;" edge="1" parent="1" source="iaKd4ftbLu3o60mAxdSO-3" target="iaKd4ftbLu3o60mAxdSO-12">
          <mxGeometry relative="1" as="geometry" />
        </mxCell>
        <mxCell id="iaKd4ftbLu3o60mAxdSO-3" value="Line of commits" style="ellipse;whiteSpace=wrap;html=1;labelBackgroundColor=#000000;fontColor=#ffffff;" vertex="1" parent="1">
          <mxGeometry x="180" y="200" width="120" height="80" as="geometry" />
        </mxCell>
        <mxCell id="iaKd4ftbLu3o60mAxdSO-15" style="edgeStyle=orthogonalEdgeStyle;rounded=0;orthogonalLoop=1;jettySize=auto;html=1;fontColor=#ffffff;" edge="1" parent="1" source="iaKd4ftbLu3o60mAxdSO-4" target="iaKd4ftbLu3o60mAxdSO-14">
          <mxGeometry relative="1" as="geometry" />
        </mxCell>
        <mxCell id="iaKd4ftbLu3o60mAxdSO-4" value="Name of projects, readme.md" style="ellipse;whiteSpace=wrap;html=1;labelBackgroundColor=#000000;fontColor=#ffffff;" vertex="1" parent="1">
          <mxGeometry x="360" y="200" width="120" height="80" as="geometry" />
        </mxCell>
        <mxCell id="iaKd4ftbLu3o60mAxdSO-17" style="edgeStyle=orthogonalEdgeStyle;rounded=0;orthogonalLoop=1;jettySize=auto;html=1;entryX=0.5;entryY=0;entryDx=0;entryDy=0;fontColor=#ffffff;" edge="1" parent="1" source="iaKd4ftbLu3o60mAxdSO-5" target="iaKd4ftbLu3o60mAxdSO-16">
          <mxGeometry relative="1" as="geometry" />
        </mxCell>
        <mxCell id="iaKd4ftbLu3o60mAxdSO-5" value="DSA repo progress" style="ellipse;whiteSpace=wrap;html=1;labelBackgroundColor=#000000;fontColor=#ffffff;" vertex="1" parent="1">
          <mxGeometry x="520" y="200" width="120" height="80" as="geometry" />
        </mxCell>
        <mxCell id="iaKd4ftbLu3o60mAxdSO-22" style="edgeStyle=orthogonalEdgeStyle;rounded=0;orthogonalLoop=1;jettySize=auto;html=1;entryX=0.154;entryY=0.999;entryDx=0;entryDy=0;entryPerimeter=0;fontColor=#ffffff;fillColor=#dae8fc;strokeColor=#6c8ebf;" edge="1" parent="1" source="iaKd4ftbLu3o60mAxdSO-10" target="iaKd4ftbLu3o60mAxdSO-14">
          <mxGeometry relative="1" as="geometry">
            <Array as="points">
              <mxPoint x="60" y="470" />
              <mxPoint x="379" y="470" />
            </Array>
          </mxGeometry>
        </mxCell>
        <mxCell id="iaKd4ftbLu3o60mAxdSO-23" style="edgeStyle=orthogonalEdgeStyle;rounded=0;orthogonalLoop=1;jettySize=auto;html=1;fontColor=#ffffff;entryX=0.25;entryY=1;entryDx=0;entryDy=0;fillColor=#f5f5f5;strokeColor=#666666;" edge="1" parent="1" source="iaKd4ftbLu3o60mAxdSO-10" target="iaKd4ftbLu3o60mAxdSO-16">
          <mxGeometry relative="1" as="geometry">
            <mxPoint x="550" y="450" as="targetPoint" />
            <Array as="points">
              <mxPoint x="70" y="480" />
              <mxPoint x="550" y="480" />
            </Array>
          </mxGeometry>
        </mxCell>
        <mxCell id="iaKd4ftbLu3o60mAxdSO-10" value="Commits,&lt;br&gt;DSA &amp;amp; project repo commits" style="whiteSpace=wrap;html=1;aspect=fixed;labelBackgroundColor=#000000;fontColor=#ffffff;" vertex="1" parent="1">
          <mxGeometry x="30" y="360" width="80" height="80" as="geometry" />
        </mxCell>
        <mxCell id="iaKd4ftbLu3o60mAxdSO-19" style="edgeStyle=orthogonalEdgeStyle;rounded=0;orthogonalLoop=1;jettySize=auto;html=1;entryX=0;entryY=0.5;entryDx=0;entryDy=0;fontColor=#ffffff;" edge="1" parent="1" source="iaKd4ftbLu3o60mAxdSO-12" target="iaKd4ftbLu3o60mAxdSO-14">
          <mxGeometry relative="1" as="geometry" />
        </mxCell>
        <mxCell id="iaKd4ftbLu3o60mAxdSO-21" style="edgeStyle=orthogonalEdgeStyle;rounded=0;orthogonalLoop=1;jettySize=auto;html=1;entryX=0.169;entryY=1.006;entryDx=0;entryDy=0;entryPerimeter=0;fontColor=#ffffff;fillColor=#f8cecc;strokeColor=#b85450;" edge="1" parent="1" source="iaKd4ftbLu3o60mAxdSO-12" target="iaKd4ftbLu3o60mAxdSO-16">
          <mxGeometry relative="1" as="geometry">
            <Array as="points">
              <mxPoint x="240" y="460" />
              <mxPoint x="540" y="460" />
            </Array>
          </mxGeometry>
        </mxCell>
        <mxCell id="iaKd4ftbLu3o60mAxdSO-12" value="LOC,&lt;br&gt;DSA &amp;amp; project repo LOC" style="whiteSpace=wrap;html=1;aspect=fixed;labelBackgroundColor=#000000;fontColor=#ffffff;" vertex="1" parent="1">
          <mxGeometry x="200" y="360" width="80" height="80" as="geometry" />
        </mxCell>
        <mxCell id="iaKd4ftbLu3o60mAxdSO-14" value="Name, dates and readme of project,&lt;br&gt;LOC and commit velocity" style="rounded=0;whiteSpace=wrap;html=1;labelBackgroundColor=#000000;fontColor=#ffffff;" vertex="1" parent="1">
          <mxGeometry x="360" y="360" width="120" height="80" as="geometry" />
        </mxCell>
        <mxCell id="iaKd4ftbLu3o60mAxdSO-16" value="Name of repo, dates and readme,&lt;br&gt;LOC and commit velocity" style="rounded=0;whiteSpace=wrap;html=1;labelBackgroundColor=#000000;fontColor=#ffffff;" vertex="1" parent="1">
          <mxGeometry x="520" y="360" width="120" height="80" as="geometry" />
        </mxCell>
        <mxCell id="iaKd4ftbLu3o60mAxdSO-24" value="&lt;ul&gt;&lt;li&gt;Naming convention for repos, eg: &#39;project-X&#39;, &#39;DSA-Y&#39;&lt;/li&gt;&lt;li&gt;List of repos, created and commit started dates, LOC&lt;/li&gt;&lt;li&gt;Readme for each repo&lt;/li&gt;&lt;li&gt;Commit velocity on weekdays &amp;amp; weekends&lt;/li&gt;&lt;li&gt;Coding days, coding days percentage&lt;/li&gt;&lt;li&gt;Coding weeks, coding weeks percentage&lt;/li&gt;&lt;li&gt;Coding months, coding months percentage&lt;/li&gt;&lt;li&gt;Empty repos as planned projects, date created&lt;/li&gt;&lt;/ul&gt;" style="rounded=0;whiteSpace=wrap;html=1;labelBackgroundColor=#000000;fontColor=#ffffff;" vertex="1" parent="1">
          <mxGeometry x="180" y="540" width="360" height="140" as="geometry" />
        </mxCell>
      </root>
    </mxGraphModel>
  </diagram>
</mxfile>
